<svg width="40" height="40" viewBox="0 0 40 40" fill="none" xmlns="http://www.w3.org/2000/svg">
<circle cx="20.0399" cy="19.808" r="19.808" fill="black"/>
<g clip-path="url(#clip0_3601_6017)">
<path d="M23.0568 26.1253C23.0139 27.8062 22.8388 29.4669 22.3039 31.0715C22.0532 31.8241 21.7173 32.5349 21.1229 33.0899C20.4327 33.7335 19.8616 33.7396 19.1674 33.0738C18.4307 32.3658 18.0799 31.4379 17.8248 30.4829C17.3333 28.6424 17.1996 26.7517 17.2341 24.8566C17.2629 23.2733 18.5937 22.012 20.1386 22.0025C21.6491 21.9933 22.9167 23.1582 23.0496 24.7076C23.0907 25.1767 23.0568 25.6535 23.0568 26.1253Z" fill="#FCFCFF"/>
<path d="M17.2134 18.2273C17.2056 16.5646 18.5906 15.2168 20.2904 15.2343C21.7699 15.2495 23.1002 16.6348 23.1154 18.1758C23.1313 19.7882 21.7765 21.1501 20.1535 21.1539C18.5509 21.1576 17.222 19.8337 17.2134 18.2273Z" fill="#FCFCFF"/>
<path d="M32.2577 17.7255C31.6498 11.4686 26.004 6.66079 19.5846 6.94376C13.249 7.22299 8.13802 12.583 8.15556 18.9931C8.1731 25.367 12.8895 29.5396 16.4479 30.4285C16.3361 29.8854 16.2426 29.3401 16.1675 28.7925C16.0269 28.6102 15.8224 28.4644 15.5409 28.3296C11.5543 26.4149 9.20058 21.842 9.89649 17.49C10.8535 11.5057 16.3955 7.66469 22.3847 8.83423C27.9267 9.91663 31.6814 15.6818 30.4242 21.1852C29.6452 24.5955 27.6636 27.0464 24.519 28.5682C24.3971 28.6272 24.2432 28.6468 24.1535 28.7537C24.0764 29.3464 23.9787 29.9359 23.855 30.5214C27.9569 29.4726 32.9439 24.7591 32.2577 17.7255Z" fill="#FCFCFF"/>
<path d="M27.8422 17.2937C26.9507 13.5754 23.5888 11.0851 19.6678 11.203C16.102 11.3105 12.9157 14.1158 12.2529 17.7112C11.5532 21.5071 13.8466 24.8141 15.9093 25.7973C15.8837 25.1304 15.8765 24.4621 15.8843 23.7933C15.8498 23.7425 15.8102 23.6954 15.7661 23.6526C14.5782 22.4837 13.9587 21.0622 13.846 19.3966C13.5748 15.3951 17.4872 12.0226 21.3946 12.9157C23.8234 13.4707 25.4925 14.9155 26.189 17.3135C26.8975 19.7521 26.2816 21.9014 24.4636 23.6917C24.4481 23.7066 24.4319 23.7208 24.415 23.734C24.4299 24.2735 24.4003 24.8167 24.4003 25.3573C24.3965 25.5051 24.392 25.6528 24.3868 25.8002C26.7759 24.5047 28.7319 21.0036 27.8422 17.2937Z" fill="#FCFCFF"/>
</g>
<defs>
<clipPath id="clip0_3601_6017">
<rect width="24.1657" height="26.6394" fill="white" transform="translate(8.15576 6.93262)"/>
</clipPath>
</defs>
</svg>
