<svg width="130" height="30" viewBox="0 0 130 30" fill="none" xmlns="http://www.w3.org/2000/svg">
<circle cx="15" cy="15" r="15" fill="black"/>
<g clip-path="url(#clip0_3601_4908)">
<path d="M17.2841 19.784C17.2516 21.0569 17.119 22.3145 16.7139 23.5296C16.5241 24.0995 16.2697 24.6378 15.8196 25.0581C15.2969 25.5455 14.8645 25.55 14.3388 25.0459C13.7809 24.5098 13.5152 23.807 13.322 23.0838C12.9499 21.6901 12.8486 20.2583 12.8747 18.8232C12.8965 17.6242 13.9043 16.6691 15.0742 16.6619C16.2181 16.6549 17.178 17.5371 17.2786 18.7104C17.3098 19.0656 17.2841 19.4267 17.2841 19.784Z" fill="#F9FCFE"/>
<path d="M12.8594 13.803C12.8535 12.5439 13.9023 11.5232 15.1895 11.5365C16.3099 11.548 17.3173 12.597 17.3288 13.764C17.3408 14.9851 16.3149 16.0164 15.0858 16.0192C13.8722 16.0221 12.8659 15.0195 12.8594 13.803Z" fill="#F9FCFE"/>
<path d="M24.2517 13.423C23.7913 8.68481 19.5159 5.04398 14.6547 5.25826C9.85687 5.46971 5.98651 9.52866 5.99979 14.3829C6.01307 19.2097 9.58466 22.3695 12.2793 23.0426C12.1947 22.6313 12.1239 22.2183 12.067 21.8037C11.9605 21.6657 11.8057 21.5552 11.5925 21.4531C8.57357 20.0032 6.79115 16.5403 7.31815 13.2446C8.04287 8.71291 12.2397 5.8042 16.7751 6.68986C20.9719 7.50953 23.8153 11.8753 22.8632 16.0429C22.2733 18.6254 20.7726 20.4814 18.3914 21.6339C18.299 21.6785 18.1825 21.6933 18.1146 21.7743C18.0562 22.2231 17.9822 22.6696 17.8885 23.1129C20.9948 22.3187 24.7713 18.7493 24.2517 13.423Z" fill="#F9FCFE"/>
<path d="M20.9084 13.096C20.2333 10.2803 17.6874 8.39447 14.7182 8.48375C12.0179 8.5652 9.60502 10.6895 9.10307 13.4122C8.57324 16.2868 10.3099 18.7911 11.872 19.5356C11.8526 19.0306 11.8471 18.5245 11.853 18.018C11.8269 17.9796 11.7969 17.9439 11.7635 17.9115C10.8639 17.0263 10.3949 15.9499 10.3095 14.6886C10.1041 11.6584 13.0669 9.10439 16.0259 9.78077C17.8651 10.2011 19.129 11.2951 19.6565 13.1111C20.193 14.9577 19.7266 16.5853 18.3499 17.9411C18.3381 17.9524 18.3259 17.9631 18.3131 17.9731C18.3244 18.3817 18.302 18.793 18.302 19.2024C18.2991 19.3144 18.2956 19.4262 18.2917 19.5378C20.1009 18.5568 21.5822 15.9054 20.9084 13.096Z" fill="#F9FCFE"/>
</g>
<path d="M45.532 20H47.31L43.404 10.2H42.032L38.126 20H39.862L40.632 18.04H44.776L45.532 20ZM41.234 16.472L42.704 12.72L44.16 16.472H41.234ZM52.2496 13.014C51.1436 13.014 50.3036 13.518 49.8136 14.386V13.154H48.2596V22.394H49.8136V18.768C50.3036 19.636 51.1436 20.14 52.2496 20.14C54.0696 20.14 55.5116 18.558 55.5116 16.584C55.5116 14.61 54.0696 13.014 52.2496 13.014ZM51.9136 18.656C50.7096 18.656 49.8136 17.76 49.8136 16.584C49.8136 15.394 50.7096 14.498 51.9136 14.498C53.0756 14.498 53.9996 15.422 53.9996 16.584C53.9996 17.732 53.0756 18.656 51.9136 18.656ZM60.8219 13.014C59.7159 13.014 58.8759 13.518 58.3859 14.386V13.154H56.8319V22.394H58.3859V18.768C58.8759 19.636 59.7159 20.14 60.8219 20.14C62.6419 20.14 64.0839 18.558 64.0839 16.584C64.0839 14.61 62.6419 13.014 60.8219 13.014ZM60.4859 18.656C59.2819 18.656 58.3859 17.76 58.3859 16.584C58.3859 15.394 59.2819 14.498 60.4859 14.498C61.6479 14.498 62.5719 15.422 62.5719 16.584C62.5719 17.732 61.6479 18.656 60.4859 18.656ZM66.9581 10.2H65.4041V20H66.9581V10.2ZM74.9483 16.276C74.9483 14.442 73.5063 13.014 71.6583 13.014C69.6843 13.014 68.1303 14.554 68.1303 16.542C68.1303 18.586 69.7123 20.14 71.6863 20.14C73.1003 20.14 74.2483 19.58 74.7523 18.656L73.5063 17.858C73.1843 18.39 72.4843 18.726 71.7143 18.726C70.6503 18.726 69.9223 18.11 69.7123 17.088H74.8923C74.9343 16.892 74.9483 16.458 74.9483 16.276ZM69.7403 15.758C69.9783 14.904 70.6503 14.428 71.5743 14.428C72.5123 14.428 73.1843 14.988 73.3103 15.758H69.7403ZM83.1441 10.2H79.3921V20H81.0301V16.22H83.1441C84.9501 16.22 86.2801 14.946 86.2801 13.196C86.2801 11.474 84.9501 10.2 83.1441 10.2ZM83.1441 14.652H81.0301V11.768H83.1441C83.9981 11.768 84.6281 12.384 84.6281 13.196C84.6281 14.022 83.9981 14.652 83.1441 14.652ZM90.184 13.014C88.182 13.014 86.642 14.554 86.642 16.584C86.642 18.614 88.182 20.14 90.184 20.14C92.186 20.14 93.74 18.614 93.74 16.584C93.74 14.554 92.186 13.014 90.184 13.014ZM90.184 14.512C91.318 14.512 92.2 15.408 92.2 16.584C92.2 17.746 91.318 18.642 90.184 18.642C89.05 18.642 88.182 17.746 88.182 16.584C88.182 15.408 89.05 14.512 90.184 14.512ZM100.27 10.2V14.358C99.7797 13.504 98.9397 13.014 97.8477 13.014C96.0277 13.014 94.5717 14.596 94.5717 16.57C94.5717 18.544 96.0277 20.14 97.8477 20.14C98.9397 20.14 99.7797 19.65 100.27 18.796V20H101.838V10.2H100.27ZM98.1837 18.656C97.0217 18.656 96.0977 17.732 96.0977 16.57C96.0977 15.422 97.0217 14.498 98.1837 14.498C99.3737 14.498 100.27 15.394 100.27 16.57C100.27 17.76 99.3737 18.656 98.1837 18.656ZM109.755 18.264L108.369 17.634C108.061 18.264 107.403 18.642 106.605 18.642C105.429 18.642 104.561 17.746 104.561 16.584C104.561 15.408 105.415 14.512 106.591 14.512C107.333 14.512 107.949 14.876 108.229 15.422L109.545 14.68C109.041 13.672 107.921 13.014 106.591 13.014C104.561 13.014 103.021 14.554 103.021 16.584C103.021 18.614 104.575 20.14 106.605 20.14C108.033 20.14 109.237 19.398 109.755 18.264ZM115.951 13.154V14.358C115.461 13.504 114.621 13.014 113.529 13.014C111.709 13.014 110.253 14.596 110.253 16.57C110.253 18.544 111.709 20.14 113.529 20.14C114.621 20.14 115.461 19.65 115.951 18.796V20H117.519V13.154H115.951ZM113.865 18.656C112.703 18.656 111.779 17.732 111.779 16.57C111.779 15.422 112.703 14.498 113.865 14.498C115.055 14.498 115.951 15.394 115.951 16.57C115.951 17.76 115.055 18.656 113.865 18.656ZM121.71 20.154C123.278 20.154 124.384 19.258 124.384 18.026C124.384 15.492 120.548 16.206 120.548 15.044C120.548 14.596 120.926 14.316 121.5 14.316C122.074 14.316 123.054 14.568 123.6 15.044L124.216 13.84C123.6 13.28 122.606 13.014 121.654 13.014C120.086 13.014 118.994 13.896 118.994 15.17C118.994 17.704 122.802 16.822 122.802 18.082C122.802 18.516 122.354 18.838 121.668 18.838C120.898 18.838 119.89 18.488 119.358 17.984L118.742 19.16C119.414 19.762 120.604 20.154 121.71 20.154ZM129.468 18.558C129.328 18.6 129.104 18.642 128.936 18.642C128.25 18.642 127.69 18.166 127.69 17.368V14.638H129.482V13.154H127.69V11.32H126.136V13.154H124.82V14.638H126.136V17.438C126.136 19.132 127.2 20.098 128.712 20.098C129.006 20.098 129.328 20.042 129.552 19.93L129.468 18.558Z" fill="#101820"/>
<defs>
<clipPath id="clip0_3601_4908">
<rect width="18.3" height="20.1732" fill="white" transform="translate(6 5.25)"/>
</clipPath>
</defs>
</svg>
