<svg width="83" height="30" viewBox="0 0 83 30" fill="none" xmlns="http://www.w3.org/2000/svg">
<circle cx="15" cy="15" r="15" fill="black"/>
<g clip-path="url(#clip0_3601_4893)">
<path d="M23.5418 9.08252H19.6042V11.3803H23.5418V9.08252Z" fill="#F9FCFE"/>
<path d="M23.5418 12.2825H19.6042V14.5802H23.5418V12.2825Z" fill="#F9FCFE"/>
<path d="M23.5418 15.481H19.6042V17.7787H23.5418V15.481Z" fill="#F9FCFE"/>
<path d="M9.26849 18.6809H5.33105V20.9787H9.26849V18.6809Z" fill="#F9FCFE"/>
<path d="M14.0253 18.6809H10.0879V20.9787H14.0253V18.6809Z" fill="#F9FCFE"/>
<path d="M18.7844 18.6809H14.8469V20.9787H18.7844V18.6809Z" fill="#F9FCFE"/>
<path d="M23.5418 18.6809H19.6042V20.9787H23.5418V18.6809Z" fill="#F9FCFE"/>
<path d="M18.7844 15.481H14.8469V17.7787H18.7844V15.481Z" fill="#F9FCFE"/>
<path d="M14.0253 15.481H10.0879V17.7787H14.0253V15.481Z" fill="#F9FCFE"/>
<path d="M14.0253 12.2825H10.0879V14.5802H14.0253V12.2825Z" fill="#F9FCFE"/>
</g>
<path d="M42.116 10.2H38.896V20H42.116C44.902 20 47.016 17.886 47.016 15.058C47.016 12.258 44.902 10.2 42.116 10.2ZM42.228 18.432H40.534V11.768H42.228C44.02 11.768 45.336 13.14 45.336 15.058C45.336 16.99 44.006 18.432 42.228 18.432ZM54.7413 16.276C54.7413 14.442 53.2993 13.014 51.4513 13.014C49.4773 13.014 47.9233 14.554 47.9233 16.542C47.9233 18.586 49.5053 20.14 51.4793 20.14C52.8933 20.14 54.0413 19.58 54.5453 18.656L53.2993 17.858C52.9773 18.39 52.2773 18.726 51.5073 18.726C50.4433 18.726 49.7153 18.11 49.5053 17.088H54.6853C54.7273 16.892 54.7413 16.458 54.7413 16.276ZM49.5333 15.758C49.7713 14.904 50.4433 14.428 51.3673 14.428C52.3053 14.428 52.9773 14.988 53.1033 15.758H49.5333ZM62.3838 16.276C62.3838 14.442 60.9418 13.014 59.0938 13.014C57.1198 13.014 55.5658 14.554 55.5658 16.542C55.5658 18.586 57.1478 20.14 59.1218 20.14C60.5358 20.14 61.6838 19.58 62.1878 18.656L60.9418 17.858C60.6198 18.39 59.9198 18.726 59.1498 18.726C58.0858 18.726 57.3578 18.11 57.1478 17.088H62.3278C62.3698 16.892 62.3838 16.458 62.3838 16.276ZM57.1758 15.758C57.4138 14.904 58.0858 14.428 59.0098 14.428C59.9478 14.428 60.6198 14.988 60.7458 15.758H57.1758ZM68.9953 13.154H63.1713V14.638L66.7973 14.596L62.9053 18.866V20H69.0233V18.502L65.1033 18.544L68.9953 14.288V13.154ZM76.6573 16.276C76.6573 14.442 75.2153 13.014 73.3673 13.014C71.3933 13.014 69.8393 14.554 69.8393 16.542C69.8393 18.586 71.4213 20.14 73.3953 20.14C74.8093 20.14 75.9573 19.58 76.4613 18.656L75.2153 17.858C74.8933 18.39 74.1933 18.726 73.4233 18.726C72.3593 18.726 71.6313 18.11 71.4213 17.088H76.6013C76.6433 16.892 76.6573 16.458 76.6573 16.276ZM71.4493 15.758C71.6873 14.904 72.3593 14.428 73.2833 14.428C74.2213 14.428 74.8933 14.988 75.0193 15.758H71.4493ZM81.2589 13.014C80.5869 13.014 79.8169 13.476 79.5089 14.134V13.154H77.9549V20H79.5089V16.346C79.5089 15.142 80.3489 14.512 81.1049 14.512C81.3989 14.512 81.6929 14.568 81.9449 14.68L82.1269 13.168C81.9169 13.07 81.5949 13.014 81.2589 13.014Z" fill="#101820"/>
<defs>
<clipPath id="clip0_3601_4893">
<rect width="18.3947" height="12.0517" fill="white" transform="translate(5.25 9)"/>
</clipPath>
</defs>
</svg>
