<svg width="41" height="40" viewBox="0 0 41 40" fill="none" xmlns="http://www.w3.org/2000/svg">
<circle cx="20.4239" cy="19.808" r="19.808" fill="black"/>
<g clip-path="url(#clip0_3601_6003)">
<path d="M31.7037 11.9937H26.5042V15.0279H31.7037V11.9937Z" fill="#FCFCFF"/>
<path d="M31.7037 16.2192H26.5042V19.2535H31.7037V16.2192Z" fill="#FCFCFF"/>
<path d="M31.7037 20.4431H26.5042V23.4774H31.7037V20.4431Z" fill="#FCFCFF"/>
<path d="M12.855 24.6685H7.65552V27.7027H12.855V24.6685Z" fill="#FCFCFF"/>
<path d="M19.1363 24.6685H13.9368V27.7027H19.1363V24.6685Z" fill="#FCFCFF"/>
<path d="M25.4204 24.6685H20.2209V27.7027H25.4204V24.6685Z" fill="#FCFCFF"/>
<path d="M31.7037 24.6685H26.5042V27.7027H31.7037V24.6685Z" fill="#FCFCFF"/>
<path d="M25.4204 20.4431H20.2209V23.4774H25.4204V20.4431Z" fill="#FCFCFF"/>
<path d="M19.1363 20.4431H13.9368V23.4774H19.1363V20.4431Z" fill="#FCFCFF"/>
<path d="M19.1363 16.2192H13.9368V19.2535H19.1363V16.2192Z" fill="#FCFCFF"/>
</g>
<defs>
<clipPath id="clip0_3601_6003">
<rect width="24.2908" height="15.9147" fill="white" transform="translate(7.54883 11.8848)"/>
</clipPath>
</defs>
</svg>
