<svg width="140" height="40" viewBox="0 0 140 40" fill="none" xmlns="http://www.w3.org/2000/svg">
<path fill-rule="evenodd" clip-rule="evenodd" d="M30.0702 0.860315C27.8208 0.339685 24.1232 0 19.943 0C15.7629 0 12.0653 0.339685 9.81584 0.860315C5.33088 1.80414 1.799 5.34611 0.857864 9.84388C0.338717 12.0997 0 15.8079 0 20C0 24.1921 0.338717 27.9002 0.857864 30.1561C1.799 34.6539 5.33088 38.1959 9.81584 39.1397C12.0653 39.6603 15.7629 40 19.943 40C24.1232 40 27.8208 39.6603 30.0702 39.1397C34.5552 38.1959 38.087 34.6539 39.0282 30.1561C39.5473 27.9002 39.886 24.1921 39.886 20C39.886 15.8079 39.5473 12.0997 39.0282 9.84388C38.087 5.34611 34.5552 1.80414 30.0702 0.860315Z" fill="#00B388"/>
<mask id="mask0_3601_4804" style="mask-type:luminance" maskUnits="userSpaceOnUse" x="0" y="0" width="40" height="40">
<path fill-rule="evenodd" clip-rule="evenodd" d="M30.0702 0.860315C27.8208 0.339685 24.1232 0 19.943 0C15.7629 0 12.0653 0.339685 9.81584 0.860315C5.33088 1.80414 1.799 5.34611 0.857864 9.84388C0.338717 12.0997 0 15.8079 0 20C0 24.1921 0.338717 27.9002 0.857864 30.1561C1.799 34.6539 5.33088 38.1959 9.81584 39.1397C12.0653 39.6603 15.7629 40 19.943 40C24.1232 40 27.8208 39.6603 30.0702 39.1397C34.5552 38.1959 38.087 34.6539 39.0282 30.1561C39.5473 27.9002 39.886 24.1921 39.886 20C39.886 15.8079 39.5473 12.0997 39.0282 9.84388C38.087 5.34611 34.5552 1.80414 30.0702 0.860315Z" fill="white"/>
</mask>
<g mask="url(#mask0_3601_4804)">
<path d="M24.7369 30.7051C24.3584 29.8016 23.5551 29.1214 22.5777 28.9157C21.9928 28.7803 21.0315 28.692 19.9446 28.692C18.8578 28.692 17.8964 28.7803 17.3115 28.9157C16.3411 29.1199 15.5423 29.7919 15.1605 30.6857C15.0355 30.9784 14.7617 31.1888 14.4448 31.1601C14.339 31.1506 14.2373 31.1411 14.1601 31.1334C12.5962 30.9772 11.3669 30.7594 10.6527 30.5051C10.6515 30.5045 10.6501 30.5039 10.6484 30.5033C10.1692 30.3226 9.82812 29.8588 9.82812 29.315C9.82812 29.3015 9.82834 29.288 9.82875 29.2746C9.82985 29.2527 9.83113 29.2304 9.8326 29.2075C9.83302 29.2025 9.83348 29.1974 9.83396 29.1923C9.83532 29.1781 9.83618 29.1643 9.83652 29.151C9.95826 27.5186 10.9468 23.697 12.4233 19.3349C14.1112 14.3483 15.8764 10.3112 16.6724 9.52373C16.7994 9.39106 16.946 9.27995 17.1081 9.19426C17.1713 9.15803 17.2515 9.12339 17.3466 9.09071C17.3491 9.08985 17.3516 9.08899 17.3541 9.08815C17.8771 8.91079 18.8409 8.79199 19.9436 8.79199C21.0483 8.79199 22.0121 8.91079 22.5342 9.08783C22.5376 9.08899 22.5401 9.08985 22.5426 9.09071C22.6377 9.12339 22.7179 9.15803 22.7811 9.19426C22.9432 9.27995 23.0898 9.39106 23.2157 9.5223C23.2161 9.52273 23.2165 9.52321 23.2168 9.52373C24.0128 10.3112 25.778 14.3483 27.4659 19.3349C28.9424 23.697 29.931 27.5186 30.0527 29.151C30.053 29.1643 30.0539 29.1781 30.0553 29.1923C30.0557 29.1974 30.0562 29.2025 30.0566 29.2075C30.0581 29.2304 30.0594 29.2527 30.0605 29.2746C30.0609 29.288 30.0611 29.3015 30.0611 29.315C30.0611 29.8588 29.7201 30.3226 29.2408 30.5033C29.2391 30.5039 29.2377 30.5045 29.2365 30.5051C28.523 30.7591 27.2952 30.9768 25.7332 31.133C25.65 31.1413 25.5382 31.1517 25.4236 31.162C25.1189 31.1895 24.8551 30.9873 24.7369 30.7051Z" fill="white"/>
</g>
<path fill-rule="evenodd" clip-rule="evenodd" d="M63.7101 13.3259H67.5217V30.0059H63.7101V27.075C62.5191 29.1539 60.4772 30.3467 57.8227 30.3467C53.3986 30.3467 49.8594 26.4616 49.8594 21.6563C49.8594 16.851 53.3986 13 57.8227 13C60.4772 13 62.5191 14.1928 63.7101 16.2717V13.3259ZM120.773 13.3259H124.584V30.0059H120.773V27.075C119.582 29.1539 117.54 30.3467 114.885 30.3467C110.461 30.3467 106.922 26.4616 106.922 21.6563C106.922 16.851 110.461 13 114.885 13C117.54 13 119.582 14.1928 120.773 16.2717V13.3259ZM58.723 26.7217C61.6157 26.7217 63.7937 24.5406 63.7937 21.6438C63.7937 18.7811 61.6157 16.6 58.723 16.6C55.8984 16.6 53.6523 18.8493 53.6523 21.6438C53.6523 24.4725 55.8984 26.7217 58.723 26.7217ZM115.59 26.7217C118.483 26.7217 120.661 24.5406 120.661 21.6438C120.661 18.7811 118.483 16.6 115.59 16.6C112.766 16.6 110.52 18.8493 110.52 21.6438C110.52 24.4725 112.766 26.7217 115.59 26.7217ZM73.2284 5C74.5556 5 75.6786 6.12464 75.6786 7.41968C75.6786 8.78288 74.5556 9.87344 73.2284 9.87344C71.9012 9.87344 70.8122 8.78288 70.8122 7.41968C70.8122 6.12464 71.9012 5 73.2284 5ZM71.3555 13.28H75.133V29.96H71.3555V13.28ZM87 12.9541C87.7277 12.9541 88.4283 13.0623 88.9335 13.2546C89.2309 13.3678 89.4932 13.4929 89.6968 13.5985L88.1596 16.8212C87.6752 16.6742 87.1504 16.6006 86.6256 16.6006C84.7879 16.6006 82.746 18.1342 82.746 21.0651V29.96H78.9685V13.28H82.746V15.6805C83.4947 14.0787 85.3664 12.9541 87 12.9541ZM105.971 25.7341C104.711 28.4946 101.785 30.3008 98.3136 30.3008C93.379 30.3008 89.6016 26.5861 89.6016 21.6445C89.6016 16.7029 93.345 12.9541 98.2796 12.9541C101.513 12.9541 104.235 14.5559 105.46 17.0096L102.261 18.8159C101.581 17.4867 100.083 16.6007 98.2796 16.6007C95.4209 16.6007 93.345 18.7818 93.345 21.6445C93.345 24.4731 95.455 26.6543 98.3136 26.6543C100.253 26.6543 101.853 25.7341 102.602 24.2005L105.971 25.7341ZM132.199 5V29.96H128.422V5H132.199ZM139.81 5V29.96H136.032V5H139.81Z" fill="#101820"/>
</svg>
