<svg width="84" height="30" viewBox="0 0 84 30" fill="none" xmlns="http://www.w3.org/2000/svg">
<circle cx="15" cy="15" r="15" fill="black"/>
<g clip-path="url(#clip0_3601_4887)">
<path d="M15.1872 6.03003C10.1287 6.03003 6.02783 10.1308 6.02783 15.1893C6.02783 20.248 10.1287 24.3485 15.1872 24.3485C20.2463 24.3485 24.3467 20.248 24.3467 15.1893C24.3467 10.1312 20.2463 6.03047 15.1871 6.03047L15.1872 6.03003ZM19.3877 19.2403C19.2236 19.5094 18.8714 19.5947 18.6023 19.4296C16.4518 18.116 13.7446 17.8185 10.5563 18.5469C10.2491 18.6169 9.9428 18.4244 9.8728 18.1171C9.80247 17.8097 9.99421 17.5035 10.3022 17.4335C13.7913 16.636 16.7841 16.9796 19.1984 18.455C19.4675 18.6202 19.5528 18.9713 19.3877 19.2403ZM20.5088 16.746C20.302 17.0824 19.8623 17.1885 19.5266 16.9817C17.0645 15.4681 13.3116 15.0298 10.3994 15.9138C10.0218 16.0279 9.62288 15.815 9.50825 15.438C9.3945 15.0604 9.60746 14.6622 9.98447 14.5474C13.3109 13.5381 17.4463 14.027 20.2736 15.7644C20.6094 15.9711 20.7155 16.4108 20.5088 16.7462V16.746ZM20.605 14.149C17.653 12.3957 12.7825 12.2344 9.96402 13.0899C9.51143 13.2271 9.0328 12.9716 8.89564 12.519C8.75849 12.0662 9.01377 11.5879 9.46669 11.4503C12.7021 10.4681 18.0806 10.6579 21.4793 12.6755C21.8873 12.9172 22.0208 13.4429 21.779 13.8495C21.5384 14.2566 21.0112 14.3908 20.6054 14.149H20.605Z" fill="#F9FCFE"/>
</g>
<path d="M42.088 10.06C40.156 10.06 38.784 11.278 38.784 12.874C38.784 16.444 43.978 15.156 43.978 17.186C43.978 18.012 43.236 18.558 42.158 18.558C40.954 18.558 40.086 17.984 39.33 17.256L38.28 18.46C39.134 19.412 40.66 20.14 42.158 20.14C44.342 20.14 45.658 18.74 45.658 17.172C45.658 13.63 40.436 14.834 40.436 12.748C40.436 12.09 41.066 11.642 41.962 11.642C42.844 11.642 43.81 12.062 44.468 12.734L45.42 11.46C44.748 10.662 43.348 10.06 42.088 10.06ZM50.9644 13.014C49.8584 13.014 49.0184 13.518 48.5284 14.386V13.154H46.9744V22.394H48.5284V18.768C49.0184 19.636 49.8584 20.14 50.9644 20.14C52.7844 20.14 54.2264 18.558 54.2264 16.584C54.2264 14.61 52.7844 13.014 50.9644 13.014ZM50.6284 18.656C49.4244 18.656 48.5284 17.76 48.5284 16.584C48.5284 15.394 49.4244 14.498 50.6284 14.498C51.7904 14.498 52.7144 15.422 52.7144 16.584C52.7144 17.732 51.7904 18.656 50.6284 18.656ZM58.6157 13.014C56.6137 13.014 55.0737 14.554 55.0737 16.584C55.0737 18.614 56.6137 20.14 58.6157 20.14C60.6177 20.14 62.1717 18.614 62.1717 16.584C62.1717 14.554 60.6177 13.014 58.6157 13.014ZM58.6157 14.512C59.7497 14.512 60.6317 15.408 60.6317 16.584C60.6317 17.746 59.7497 18.642 58.6157 18.642C57.4817 18.642 56.6137 17.746 56.6137 16.584C56.6137 15.408 57.4817 14.512 58.6157 14.512ZM67.261 18.558C67.121 18.6 66.897 18.642 66.729 18.642C66.043 18.642 65.483 18.166 65.483 17.368V14.638H67.275V13.154H65.483V11.32H63.929V13.154H62.613V14.638H63.929V17.438C63.929 19.132 64.993 20.098 66.505 20.098C66.799 20.098 67.121 20.042 67.345 19.93L67.261 18.558ZM69.3737 9.976C68.8277 9.976 68.3797 10.438 68.3797 10.97C68.3797 11.53 68.8277 11.978 69.3737 11.978C69.9197 11.978 70.3817 11.53 70.3817 10.97C70.3817 10.438 69.9197 9.976 69.3737 9.976ZM68.5897 13.154V20H70.1437V13.154H68.5897ZM73.9869 12.608C73.9869 11.824 74.5469 11.348 75.2329 11.348C75.4009 11.348 75.6389 11.39 75.7649 11.432L75.8489 10.046C75.6249 9.948 75.3029 9.892 75.0089 9.892C73.4969 9.892 72.4329 10.844 72.4329 12.538V13.154H71.1169V14.638H72.4329V20H73.9869V14.638H75.7789V13.154H73.9869V12.608ZM81.5648 13.154L79.7308 17.816L77.8968 13.154H76.2168L78.9328 19.636L77.7008 22.408H79.3808L83.2448 13.154H81.5648Z" fill="#101820"/>
<defs>
<clipPath id="clip0_3601_4887">
<rect width="18.375" height="18.375" fill="white" transform="translate(6 6)"/>
</clipPath>
</defs>
</svg>
