<svg width="40" height="40" viewBox="0 0 40 40" fill="none" xmlns="http://www.w3.org/2000/svg">
<circle cx="19.808" cy="19.808" r="19.808" fill="black"/>
<g clip-path="url(#clip0_3601_5998)">
<path d="M20.0547 7.9624C13.3748 7.9624 7.95947 13.3776 7.95947 20.0575C7.95947 26.7377 13.3748 32.1525 20.0547 32.1525C26.7353 32.1525 32.1501 26.7377 32.1501 20.0575C32.1501 13.3781 26.7353 7.96298 20.0546 7.96298L20.0547 7.9624ZM25.6015 25.407C25.3849 25.7623 24.9198 25.875 24.5645 25.6569C21.7247 23.9223 18.1497 23.5294 13.9394 24.4913C13.5337 24.5838 13.1293 24.3296 13.0369 23.9237C12.944 23.5178 13.1972 23.1134 13.6039 23.021C18.2113 21.9679 22.1635 22.4216 25.3517 24.37C25.707 24.5881 25.8196 25.0517 25.6015 25.407ZM27.082 22.1132C26.809 22.5574 26.2284 22.6975 25.785 22.4245C22.5338 20.4257 17.5779 19.8469 13.7323 21.0142C13.2336 21.1649 12.7068 20.8838 12.5555 20.386C12.4053 19.8872 12.6865 19.3615 13.1843 19.2098C17.577 17.877 23.0379 18.5226 26.7715 20.8169C27.2149 21.0899 27.355 21.6705 27.082 22.1134V22.1132ZM27.2091 18.6838C23.3108 16.3684 16.8792 16.1555 13.1573 17.2851C12.5597 17.4664 11.9276 17.129 11.7465 16.5313C11.5654 15.9334 11.9025 15.3018 12.5006 15.1201C16.7731 13.8231 23.8756 14.0737 28.3637 16.738C28.9024 17.0571 29.0786 17.7514 28.7594 18.2882C28.4417 18.8258 27.7455 19.003 27.2097 18.6838H27.2091Z" fill="#FCFCFF"/>
</g>
<defs>
<clipPath id="clip0_3601_5998">
<rect width="24.2648" height="24.2648" fill="white" transform="translate(7.92358 7.9231)"/>
</clipPath>
</defs>
</svg>
